<svg xmlns="http://www.w3.org/2000/svg" viewBox="0 0 71.48 70.08"><defs><style>.cls-1{fill:#d2ba40;}.cls-2,.cls-3{fill:rgba(51, 51, 51, 0.75);}.cls-2{opacity:0.6; fill:#ffffff;}</style></defs><title>Recurso 114</title><g id="Capa_2" data-name="Capa 2"><g id="Capa_2-2" data-name="Capa 2"><rect class="cls-1" width="71.48" height="70.08" rx="16.46"/><path class="cls-2" d="M51.94,57.76H19.54a.71.71,0,0,1-.5-.21.69.69,0,0,1-.19-.51l1.54-32.41a.69.69,0,0,1,.69-.65H50.4a.69.69,0,0,1,.69.65L52.63,57a.69.69,0,0,1-.19.51A.71.71,0,0,1,51.94,57.76Z"/><path class="cls-3" d="M51.94,57.58H19.54a.67.67,0,0,1-.5-.21.69.69,0,0,1-.19-.51l1.54-32.4a.69.69,0,0,1,.69-.66H50.4a.69.69,0,0,1,.69.66l1.54,32.4a.69.69,0,0,1-.19.51A.67.67,0,0,1,51.94,57.58ZM20.26,56.21h31l-1.47-31h-28Z"/><path class="cls-3" d="M43.15,27.92a.69.69,0,0,1-.68-.69V20.42a6.73,6.73,0,1,0-13.46,0v6.81a.69.69,0,1,1-1.37,0V20.42a8.1,8.1,0,0,1,16.2,0v6.81A.69.69,0,0,1,43.15,27.92Z"/></g></g></svg>