<?xml version="1.0" encoding="UTF-8"?>
<svg xmlns="http://www.w3.org/2000/svg" xmlns:xlink="http://www.w3.org/1999/xlink" width="80px" height="29px" viewBox="0 0 81 29" version="1.1">
<g id="surface1">
<path style=" stroke:none;fill-rule:evenodd;fill:rgb(92.941176%,10.980392%,14.117647%);fill-opacity:1;" d="M 35.457031 4.917969 C 35.457031 4.917969 35.457031 4.917969 37.160156 4.917969 C 37.78125 4.917969 38.09375 5.226562 38.09375 5.921875 C 38.09375 5.921875 38.09375 5.921875 38.09375 8.382812 C 38.09375 8.382812 38.09375 8.382812 41.433594 8.382812 C 41.433594 8.382812 41.433594 8.382812 41.433594 5.921875 C 41.433594 5.226562 41.742188 4.917969 42.441406 4.917969 C 42.441406 4.917969 42.441406 4.917969 44.070312 4.917969 C 44.070312 4.917969 44.070312 4.917969 44.070312 6.535156 C 44.070312 6.535156 44.070312 6.535156 43.375 6.535156 C 43.375 6.535156 43.292969 6.617188 43.292969 6.617188 C 43.292969 6.617188 43.292969 6.617188 43.292969 13.539062 C 43.292969 13.539062 43.292969 13.539062 41.433594 13.539062 C 41.433594 13.539062 41.433594 13.539062 41.433594 10.078125 C 41.433594 10.078125 41.433594 10.078125 38.09375 10.078125 C 38.09375 10.078125 38.09375 10.078125 38.09375 13.539062 C 38.09375 13.539062 38.09375 13.539062 36.234375 13.539062 C 36.234375 13.539062 36.234375 13.539062 36.234375 6.617188 C 36.234375 6.617188 36.234375 6.535156 36.152344 6.535156 C 36.152344 6.535156 36.152344 6.535156 35.457031 6.535156 C 35.457031 6.535156 35.457031 6.535156 35.457031 4.917969 Z M 35.457031 4.917969 "/>
<path style=" stroke:none;fill-rule:evenodd;fill:rgb(92.941176%,10.980392%,14.117647%);fill-opacity:1;" d="M 48.957031 4.765625 L 49 4.769531 L 49 6.546875 L 48.957031 6.535156 C 47.5625 6.535156 46.472656 7.691406 46.472656 9.152344 C 46.472656 10.691406 47.5625 11.921875 48.957031 11.921875 L 49 11.914062 L 49 13.6875 L 48.957031 13.691406 C 46.472656 13.691406 44.457031 11.691406 44.457031 9.152344 C 44.457031 6.691406 46.472656 4.765625 48.957031 4.765625 Z M 48.957031 4.765625 "/>
<path style=" stroke:none;fill-rule:evenodd;fill:rgb(92.941176%,10.980392%,14.117647%);fill-opacity:1;" d="M 49 4.769531 L 49.863281 4.855469 C 51.910156 5.253906 53.457031 6.996094 53.457031 9.152344 C 53.457031 11.371094 51.910156 13.183594 49.863281 13.597656 L 49 13.6875 L 49 11.914062 L 49.945312 11.707031 C 50.859375 11.289062 51.519531 10.304688 51.519531 9.152344 C 51.519531 8.054688 50.859375 7.132812 49.945312 6.742188 L 49 6.546875 Z M 49 4.769531 "/>
<path style=" stroke:none;fill-rule:evenodd;fill:rgb(92.941176%,10.980392%,14.117647%);fill-opacity:1;" d="M 53.84375 4.917969 C 53.84375 4.917969 53.84375 4.917969 56.445312 4.917969 L 57.683594 4.917969 L 57.683594 6.535156 L 57.570312 6.535156 C 57.414062 6.535156 57.101562 6.535156 56.480469 6.535156 C 56.480469 6.535156 56.480469 6.535156 56.480469 8.304688 C 56.480469 8.304688 56.480469 8.304688 57.007812 8.304688 L 57.683594 8.304688 L 57.683594 9.84375 L 57.289062 9.84375 C 57.09375 9.84375 56.832031 9.84375 56.480469 9.84375 C 56.480469 9.84375 56.480469 9.84375 56.480469 11.769531 C 56.480469 11.847656 56.480469 11.847656 56.558594 11.847656 C 56.558594 11.847656 56.558594 11.847656 57.117188 11.847656 L 57.683594 11.847656 L 57.683594 13.539062 L 57.523438 13.539062 C 57.242188 13.539062 56.675781 13.539062 55.550781 13.539062 C 54.929688 13.539062 54.625 13.230469 54.625 12.535156 L 54.625 6.535156 C 54.625 6.535156 54.625 6.535156 53.84375 6.535156 C 53.84375 6.535156 53.84375 6.535156 53.84375 4.917969 Z M 53.84375 4.917969 "/>
<path style=" stroke:none;fill-rule:evenodd;fill:rgb(92.941176%,10.980392%,14.117647%);fill-opacity:1;" d="M 57.683594 4.917969 L 57.722656 4.917969 C 59.429688 4.917969 60.4375 5.84375 60.4375 7.230469 C 60.4375 8.074219 60.050781 8.613281 59.664062 9 C 60.363281 9.308594 60.828125 10.078125 60.828125 10.917969 C 60.828125 12.535156 59.585938 13.539062 57.800781 13.539062 C 57.800781 13.539062 57.800781 13.539062 57.769531 13.539062 L 57.683594 13.539062 L 57.683594 11.847656 L 57.875 11.847656 C 58.496094 11.847656 58.890625 11.460938 58.890625 10.84375 C 58.890625 10.230469 58.496094 9.84375 57.875 9.84375 C 57.875 9.84375 57.875 9.84375 57.703125 9.84375 L 57.683594 9.84375 L 57.683594 8.304688 L 57.722656 8.304688 C 58.269531 8.304688 58.578125 7.917969 58.578125 7.382812 C 58.578125 6.84375 58.269531 6.535156 57.722656 6.535156 C 57.722656 6.535156 57.722656 6.535156 57.703125 6.535156 L 57.683594 6.535156 Z M 57.683594 4.917969 "/>
<path style=" stroke:none;fill-rule:evenodd;fill:rgb(92.941176%,10.980392%,14.117647%);fill-opacity:1;" d="M 64.398438 4.917969 C 64.398438 4.917969 64.398438 4.917969 65.179688 4.917969 L 65.324219 4.917969 L 65.324219 7.382812 C 65.25 7.539062 65.171875 7.765625 65.171875 8 C 65.171875 8 65.171875 8 64.550781 9.769531 C 64.550781 9.769531 64.550781 9.769531 65.210938 9.769531 L 65.324219 9.769531 L 65.324219 11.382812 L 64.90625 11.382812 C 64.667969 11.382812 64.398438 11.382812 64.089844 11.382812 C 64.089844 11.382812 64.089844 11.382812 63.542969 12.769531 C 63.390625 13.304688 63.082031 13.539062 62.460938 13.539062 C 62.460938 13.539062 62.460938 13.539062 61.292969 13.539062 C 61.292969 13.539062 61.292969 13.539062 61.292969 11.847656 C 61.292969 11.847656 61.292969 11.847656 61.679688 11.847656 C 61.839844 11.847656 61.839844 11.847656 61.914062 11.769531 C 61.914062 11.769531 61.914062 11.769531 64.398438 4.917969 Z M 64.398438 4.917969 "/>
<path style=" stroke:none;fill-rule:evenodd;fill:rgb(92.941176%,10.980392%,14.117647%);fill-opacity:1;" d="M 65.324219 4.917969 L 66.257812 4.917969 C 66.257812 4.917969 66.257812 4.917969 68.742188 11.769531 C 68.816406 11.847656 68.816406 11.847656 68.972656 11.847656 C 68.972656 11.847656 68.972656 11.847656 69.285156 11.847656 C 69.285156 11.847656 69.285156 11.847656 69.285156 13.539062 C 69.285156 13.539062 69.285156 13.539062 68.195312 13.539062 C 67.574219 13.539062 67.269531 13.304688 67.109375 12.691406 C 67.109375 12.691406 67.109375 12.691406 66.566406 11.382812 C 66.566406 11.382812 66.566406 11.382812 65.523438 11.382812 L 65.324219 11.382812 L 65.324219 9.769531 L 66.101562 9.769531 C 66.101562 9.769531 66.101562 9.769531 65.484375 8 C 65.484375 7.765625 65.40625 7.539062 65.324219 7.382812 Z M 65.324219 4.917969 "/>
<path style=" stroke:none;fill-rule:evenodd;fill:rgb(92.941176%,10.980392%,14.117647%);fill-opacity:1;" d="M 35.457031 15.996094 C 35.457031 15.996094 35.457031 15.996094 42.207031 15.996094 C 42.828125 15.996094 43.214844 16.304688 43.214844 17 C 43.214844 17 43.214844 17 43.214844 22.847656 C 43.214844 22.921875 43.214844 22.921875 43.292969 22.921875 C 43.292969 22.921875 43.292969 22.921875 43.914062 22.921875 C 43.914062 22.921875 43.914062 22.921875 43.914062 24.617188 C 43.914062 24.617188 43.914062 24.617188 42.285156 24.617188 C 41.585938 24.617188 41.277344 24.308594 41.277344 23.613281 C 41.277344 23.613281 41.277344 23.613281 41.277344 17.695312 C 41.277344 17.695312 41.277344 17.613281 41.199219 17.613281 C 41.199219 17.613281 41.199219 17.613281 38.09375 17.613281 C 38.09375 17.613281 38.09375 17.613281 38.09375 24.617188 C 38.09375 24.617188 38.09375 24.617188 36.234375 24.617188 C 36.234375 24.617188 36.234375 24.617188 36.234375 17.613281 C 36.234375 17.613281 36.234375 17.613281 35.457031 17.613281 C 35.457031 17.613281 35.457031 17.613281 35.457031 15.996094 Z M 35.457031 15.996094 "/>
<path style=" stroke:none;fill-rule:evenodd;fill:rgb(92.941176%,10.980392%,14.117647%);fill-opacity:1;" d="M 48.800781 15.84375 L 48.839844 15.847656 L 48.839844 17.625 L 48.800781 17.613281 C 47.402344 17.613281 46.320312 18.769531 46.320312 20.234375 C 46.320312 21.769531 47.402344 23 48.800781 23 L 48.839844 22.992188 L 48.839844 24.765625 L 48.800781 24.769531 C 46.320312 24.769531 44.378906 22.765625 44.378906 20.234375 C 44.378906 17.769531 46.320312 15.84375 48.800781 15.84375 Z M 48.800781 15.84375 "/>
<path style=" stroke:none;fill-rule:evenodd;fill:rgb(92.941176%,10.980392%,14.117647%);fill-opacity:1;" d="M 48.839844 15.847656 L 49.730469 15.933594 C 51.816406 16.332031 53.300781 18.074219 53.300781 20.234375 C 53.300781 22.449219 51.816406 24.261719 49.730469 24.675781 L 48.839844 24.765625 L 48.839844 22.992188 L 49.824219 22.785156 C 50.753906 22.367188 51.363281 21.382812 51.363281 20.234375 C 51.363281 19.132812 50.753906 18.210938 49.824219 17.820312 L 48.839844 17.625 Z M 48.839844 15.847656 "/>
<path style=" stroke:none;fill-rule:evenodd;fill:rgb(92.941176%,10.980392%,14.117647%);fill-opacity:1;" d="M 53.691406 15.996094 C 53.691406 15.996094 53.691406 15.996094 55.398438 15.996094 C 56.019531 15.996094 56.328125 16.304688 56.328125 17 C 56.328125 17 56.328125 17 56.328125 22.847656 C 56.328125 22.921875 56.328125 22.921875 56.40625 22.921875 C 56.40625 22.921875 56.40625 22.921875 58.65625 22.921875 C 58.65625 22.921875 58.65625 22.921875 58.65625 15.996094 C 58.65625 15.996094 58.65625 15.996094 60.519531 15.996094 C 60.519531 15.996094 60.519531 15.996094 60.519531 22.921875 C 60.519531 22.921875 60.519531 22.921875 62.769531 22.921875 C 62.847656 22.921875 62.847656 22.921875 62.847656 22.847656 C 62.847656 22.847656 62.847656 22.847656 62.847656 17 C 62.847656 16.304688 63.15625 15.996094 63.777344 15.996094 C 63.777344 15.996094 63.777344 15.996094 65.484375 15.996094 C 65.484375 15.996094 65.484375 15.996094 65.484375 17.613281 C 65.484375 17.613281 65.484375 17.613281 64.785156 17.613281 C 64.707031 17.613281 64.707031 17.695312 64.707031 17.695312 C 64.707031 17.695312 64.707031 17.695312 64.707031 23.613281 C 64.707031 24.308594 64.398438 24.617188 63.777344 24.617188 C 63.777344 24.617188 63.777344 24.617188 55.472656 24.617188 C 54.777344 24.617188 54.464844 24.308594 54.464844 23.613281 C 54.464844 23.613281 54.464844 23.613281 54.464844 17.695312 C 54.464844 17.695312 54.464844 17.613281 54.390625 17.613281 C 54.390625 17.613281 54.390625 17.613281 53.691406 17.613281 C 53.691406 17.613281 53.691406 17.613281 53.691406 15.996094 Z M 53.691406 15.996094 "/>
<path style=" stroke:none;fill-rule:evenodd;fill:rgb(92.941176%,10.980392%,14.117647%);fill-opacity:1;" d="M 66.953125 15.996094 C 66.953125 15.996094 66.953125 15.996094 72.777344 15.996094 C 73.476562 15.996094 73.710938 16.304688 73.710938 16.921875 C 73.710938 16.921875 73.710938 16.921875 73.710938 18.382812 L 72 18.382812 C 72 18.382812 72 18.382812 72 17.695312 C 72 17.613281 72 17.613281 71.921875 17.613281 C 71.921875 17.613281 71.921875 17.613281 70.839844 17.613281 C 70.839844 17.613281 70.839844 17.613281 70.839844 24.617188 C 70.839844 24.617188 70.839844 24.617188 68.972656 24.617188 C 68.972656 24.617188 68.972656 24.617188 68.972656 17.613281 C 68.972656 17.613281 68.972656 17.613281 67.886719 17.613281 C 67.808594 17.613281 67.808594 17.613281 67.808594 17.695312 C 67.808594 17.695312 67.808594 17.695312 67.808594 18.382812 C 67.808594 18.382812 67.808594 18.382812 66.101562 18.382812 C 66.101562 18.382812 66.101562 18.382812 66.101562 16.921875 C 66.101562 16.304688 66.335938 15.996094 66.953125 15.996094 Z M 66.953125 15.996094 "/>
<path style=" stroke:none;fill-rule:evenodd;fill:rgb(92.941176%,10.980392%,14.117647%);fill-opacity:1;" d="M 76.113281 15.996094 C 76.113281 15.996094 76.113281 15.996094 76.898438 15.996094 L 77.042969 15.996094 L 77.042969 18.460938 C 76.960938 18.617188 76.886719 18.84375 76.886719 19.078125 C 76.886719 19.078125 76.886719 19.078125 76.265625 20.847656 C 76.265625 20.847656 76.265625 20.847656 76.921875 20.847656 L 77.042969 20.847656 L 77.042969 22.460938 L 76.621094 22.460938 C 76.382812 22.460938 76.113281 22.460938 75.800781 22.460938 C 75.800781 22.460938 75.800781 22.460938 75.257812 23.769531 C 75.105469 24.382812 74.792969 24.617188 74.171875 24.617188 C 74.171875 24.617188 74.171875 24.617188 73.007812 24.617188 C 73.007812 24.617188 73.007812 24.617188 73.007812 22.921875 C 73.007812 22.921875 73.007812 22.921875 73.394531 22.921875 C 73.554688 22.921875 73.554688 22.921875 73.628906 22.847656 C 73.628906 22.847656 73.628906 22.847656 76.113281 15.996094 Z M 76.113281 15.996094 "/>
<path style=" stroke:none;fill-rule:evenodd;fill:rgb(92.941176%,10.980392%,14.117647%);fill-opacity:1;" d="M 77.042969 15.996094 L 77.96875 15.996094 C 77.96875 15.996094 77.96875 15.996094 80.457031 22.847656 C 80.535156 22.921875 80.535156 22.921875 80.691406 22.921875 L 81 22.921875 C 81 22.921875 81 22.921875 81 24.617188 C 81 24.617188 81 24.617188 79.914062 24.617188 C 79.292969 24.617188 78.984375 24.382812 78.824219 23.769531 C 78.824219 23.769531 78.824219 23.769531 78.285156 22.460938 C 78.285156 22.460938 78.285156 22.460938 77.238281 22.460938 L 77.042969 22.460938 L 77.042969 20.847656 L 77.816406 20.847656 C 77.816406 20.847656 77.816406 20.847656 77.195312 19.078125 C 77.195312 18.84375 77.121094 18.617188 77.042969 18.460938 Z M 77.042969 15.996094 "/>
<path style=" stroke:none;fill-rule:evenodd;fill:rgb(92.941176%,10.980392%,14.117647%);fill-opacity:1;" d="M 23.5 8.585938 C 23.589844 8.558594 23.703125 8.613281 23.820312 8.765625 C 23.820312 8.765625 23.820312 8.765625 29.097656 13.921875 C 29.402344 14.226562 29.402344 14.691406 29.097656 14.921875 C 29.097656 14.921875 29.097656 14.921875 23.820312 20.152344 C 23.703125 20.308594 23.589844 20.34375 23.5 20.296875 C 23.410156 20.25 23.355469 20.117188 23.355469 19.921875 L 23.355469 8.921875 C 23.355469 8.730469 23.410156 8.613281 23.5 8.585938 Z M 23.5 8.585938 "/>
<path style=" stroke:none;fill-rule:evenodd;fill:rgb(92.941176%,10.980392%,14.117647%);fill-opacity:1;" d="M 14.476562 0 L 14.851562 0 L 15.210938 0.148438 C 15.210938 0.148438 15.210938 0.148438 20.636719 5.535156 C 20.871094 5.84375 20.792969 6.074219 20.40625 6.074219 C 20.40625 6.074219 20.40625 6.074219 18.15625 6.074219 C 17.765625 6.074219 17.460938 6.382812 17.460938 6.769531 C 17.460938 6.769531 17.460938 6.769531 17.460938 10.765625 C 17.460938 11.152344 17.148438 11.460938 16.679688 11.460938 C 16.679688 11.460938 16.679688 11.460938 12.726562 11.460938 C 12.339844 11.460938 12.027344 11.152344 12.027344 10.765625 C 12.027344 10.765625 12.027344 10.765625 12.027344 6.769531 C 12.027344 6.382812 11.71875 6.074219 11.324219 6.074219 L 8.921875 6.074219 C 8.535156 6.074219 8.457031 5.84375 8.6875 5.535156 C 8.6875 5.535156 8.6875 5.535156 14.121094 0.148438 Z M 14.476562 0 "/>
<path style=" stroke:none;fill-rule:evenodd;fill:rgb(92.941176%,10.980392%,14.117647%);fill-opacity:1;" d="M 5.972656 8.46875 C 6.070312 8.515625 6.132812 8.652344 6.132812 8.847656 L 6.132812 20.074219 C 6.132812 20.269531 6.070312 20.386719 5.972656 20.421875 C 5.878906 20.460938 5.742188 20.421875 5.585938 20.308594 C 5.585938 20.308594 5.585938 20.308594 0.230469 14.921875 C -0.078125 14.691406 -0.078125 14.226562 0.230469 13.921875 C 0.230469 13.921875 0.230469 13.921875 5.585938 8.613281 C 5.742188 8.460938 5.878906 8.421875 5.972656 8.46875 Z M 5.972656 8.46875 "/>
<path style=" stroke:none;fill-rule:evenodd;fill:rgb(92.941176%,10.980392%,14.117647%);fill-opacity:1;" d="M 12.726562 17.308594 C 12.726562 17.308594 12.726562 17.308594 16.679688 17.308594 C 17.148438 17.308594 17.460938 17.613281 17.460938 18 C 17.460938 18 17.460938 18 17.460938 22.230469 C 17.460938 22.691406 17.765625 23 18.15625 23 L 20.25 23 C 20.636719 23 20.792969 23.226562 20.484375 23.460938 C 20.484375 23.460938 20.484375 23.460938 15.210938 28.765625 C 15.050781 28.921875 14.859375 29 14.664062 29 C 14.472656 29 14.277344 28.921875 14.121094 28.765625 C 14.121094 28.765625 14.121094 28.765625 8.847656 23.460938 C 8.535156 23.226562 8.6875 23 9.078125 23 C 9.078125 23 9.078125 23 11.324219 23 C 11.71875 23 12.027344 22.691406 12.027344 22.230469 C 12.027344 22.230469 12.027344 22.230469 12.027344 18 C 12.027344 17.613281 12.339844 17.308594 12.726562 17.308594 Z M 12.726562 17.308594 "/>
</g>
</svg>
