<?xml version="1.0" encoding="UTF-8"?>
<svg xmlns="http://www.w3.org/2000/svg" xmlns:xlink="http://www.w3.org/1999/xlink" width="108px" height="29px" viewBox="0 0 107 29" version="1.1">
<g id="surface1">
<path style=" stroke:none;fill-rule:nonzero;fill:rgb(100%,77.647059%,15.294118%);fill-opacity:1;" d="M 19.214844 16.558594 L 9.785156 14.398438 C 7.355469 13.84375 5.652344 11.625 5.71875 9.105469 C 5.78125 6.582031 7.597656 4.457031 10.054688 4.03125 C 12.507812 3.605469 14.917969 4.996094 15.808594 7.351562 C 16.699219 9.707031 15.824219 12.375 13.714844 13.714844 C 13.675781 13.746094 13.65625 13.796875 13.664062 13.847656 C 13.671875 13.898438 13.710938 13.9375 13.757812 13.949219 L 17.953125 14.910156 C 18.054688 14.933594 18.15625 14.898438 18.21875 14.816406 C 20.253906 12.097656 20.640625 8.464844 19.230469 5.371094 C 17.824219 2.273438 14.84375 0.214844 11.484375 0.015625 L 11.09375 0.015625 C 7.175781 -0.046875 3.554688 2.117188 1.714844 5.621094 C -0.121094 9.121094 0.128906 13.375 2.371094 16.625 L 10.761719 28.761719 C 10.796875 28.8125 10.855469 28.84375 10.917969 28.84375 C 10.980469 28.84375 11.039062 28.8125 11.078125 28.761719 L 19.335938 16.882812 C 19.378906 16.824219 19.390625 16.75 19.367188 16.6875 C 19.339844 16.621094 19.285156 16.570312 19.214844 16.558594 Z M 19.214844 16.558594 "/>
<path style=" stroke:none;fill-rule:nonzero;fill:rgb(0%,0%,0%);fill-opacity:1;" d="M 27.289062 5.6875 C 27.367188 5.675781 27.449219 5.71875 27.488281 5.789062 L 30.285156 10.625 L 30.421875 10.625 L 32.796875 5.855469 C 32.847656 5.742188 32.964844 5.675781 33.085938 5.6875 L 34.792969 5.6875 C 34.855469 5.6875 34.917969 5.71875 34.953125 5.773438 C 34.988281 5.828125 34.988281 5.898438 34.957031 5.957031 L 30.035156 14.78125 C 29.980469 14.882812 29.867188 14.945312 29.75 14.933594 L 28.078125 14.933594 C 27.890625 14.933594 27.875 14.816406 27.941406 14.679688 L 29.261719 12.386719 L 25.308594 5.90625 C 25.242188 5.789062 25.308594 5.6875 25.410156 5.6875 Z M 27.289062 5.6875 "/>
<path style=" stroke:none;fill-rule:nonzero;fill:rgb(0%,0%,0%);fill-opacity:1;" d="M 37.898438 5.6875 C 37.960938 5.679688 38.027344 5.703125 38.074219 5.75 C 38.121094 5.796875 38.140625 5.863281 38.132812 5.925781 L 38.132812 9.554688 L 41.902344 5.824219 C 42.027344 5.730469 42.179688 5.679688 42.335938 5.6875 L 44.382812 5.6875 C 44.53125 5.6875 44.582031 5.824219 44.46875 5.941406 L 40.449219 9.742188 L 44.703125 14.679688 C 44.753906 14.71875 44.773438 14.785156 44.75 14.84375 C 44.726562 14.902344 44.664062 14.9375 44.601562 14.933594 L 42.59375 14.933594 C 42.4375 14.945312 42.28125 14.882812 42.175781 14.765625 L 38.988281 10.957031 L 38.125 11.773438 L 38.125 14.699219 C 38.132812 14.765625 38.109375 14.828125 38.0625 14.875 C 38.015625 14.921875 37.953125 14.945312 37.886719 14.9375 L 36.414062 14.9375 C 36.351562 14.945312 36.285156 14.921875 36.238281 14.875 C 36.191406 14.828125 36.171875 14.765625 36.179688 14.699219 L 36.179688 5.917969 C 36.171875 5.851562 36.191406 5.785156 36.238281 5.738281 C 36.285156 5.691406 36.351562 5.667969 36.414062 5.679688 L 37.886719 5.679688 Z M 37.898438 5.6875 "/>
<path style=" stroke:none;fill-rule:nonzero;fill:rgb(0%,0%,0%);fill-opacity:1;" d="M 50.269531 5.6875 C 51.1875 5.640625 52.085938 5.976562 52.753906 6.613281 C 53.421875 7.25 53.808594 8.136719 53.820312 9.066406 C 53.820312 11.035156 52.316406 12.476562 50.269531 12.476562 L 47.84375 12.476562 L 47.84375 14.699219 C 47.851562 14.765625 47.828125 14.828125 47.785156 14.875 C 47.738281 14.921875 47.671875 14.945312 47.609375 14.9375 L 46.136719 14.9375 C 46.070312 14.945312 46.003906 14.921875 45.960938 14.875 C 45.914062 14.828125 45.890625 14.765625 45.898438 14.699219 L 45.898438 5.917969 C 45.890625 5.851562 45.914062 5.785156 45.960938 5.738281 C 46.003906 5.691406 46.070312 5.667969 46.136719 5.679688 L 50.273438 5.679688 Z M 50.269531 10.609375 C 50.691406 10.648438 51.105469 10.503906 51.414062 10.214844 C 51.722656 9.921875 51.890625 9.507812 51.878906 9.082031 C 51.894531 8.652344 51.730469 8.238281 51.421875 7.945312 C 51.109375 7.652344 50.691406 7.507812 50.269531 7.554688 L 47.84375 7.554688 L 47.84375 10.609375 Z M 50.269531 10.609375 "/>
<path style=" stroke:none;fill-rule:nonzero;fill:rgb(0%,0%,0%);fill-opacity:1;" d="M 62.972656 5.6875 C 63.039062 5.679688 63.105469 5.703125 63.148438 5.75 C 63.195312 5.796875 63.21875 5.863281 63.210938 5.925781 L 63.210938 14.699219 C 63.21875 14.765625 63.195312 14.828125 63.148438 14.875 C 63.105469 14.921875 63.039062 14.945312 62.972656 14.9375 L 61.503906 14.9375 C 61.4375 14.945312 61.371094 14.921875 61.328125 14.875 C 61.28125 14.828125 61.257812 14.765625 61.265625 14.699219 L 61.265625 7.53125 L 57.210938 7.53125 L 57.210938 14.6875 C 57.21875 14.753906 57.199219 14.820312 57.152344 14.867188 C 57.105469 14.914062 57.042969 14.9375 56.976562 14.925781 L 55.503906 14.925781 C 55.441406 14.9375 55.375 14.914062 55.328125 14.867188 C 55.28125 14.820312 55.261719 14.753906 55.269531 14.6875 L 55.269531 5.917969 C 55.261719 5.851562 55.28125 5.785156 55.328125 5.738281 C 55.375 5.691406 55.441406 5.667969 55.503906 5.679688 L 62.972656 5.679688 Z M 62.972656 5.6875 "/>
<path style=" stroke:none;fill-rule:nonzero;fill:rgb(0%,0%,0%);fill-opacity:1;" d="M 69.746094 5.546875 C 72.328125 5.605469 74.378906 7.761719 74.34375 10.375 C 74.304688 12.992188 72.191406 15.085938 69.609375 15.070312 C 67.027344 15.050781 64.941406 12.929688 64.9375 10.3125 C 64.9375 9.03125 65.449219 7.800781 66.351562 6.90625 C 67.257812 6.007812 68.480469 5.519531 69.746094 5.546875 M 66.898438 10.3125 C 66.917969 11.894531 68.199219 13.160156 69.757812 13.148438 C 71.320312 13.132812 72.578125 11.847656 72.574219 10.265625 C 72.570312 8.683594 71.308594 7.402344 69.746094 7.398438 C 68.976562 7.367188 68.230469 7.667969 67.6875 8.222656 C 67.148438 8.773438 66.859375 9.535156 66.898438 10.3125 "/>
<path style=" stroke:none;fill-rule:nonzero;fill:rgb(0%,0%,0%);fill-opacity:1;" d="M 81.042969 13.074219 L 81.042969 5.917969 C 81.035156 5.851562 81.058594 5.785156 81.105469 5.738281 C 81.148438 5.691406 81.214844 5.667969 81.28125 5.679688 L 82.722656 5.679688 C 82.785156 5.667969 82.851562 5.691406 82.898438 5.738281 C 82.945312 5.785156 82.964844 5.851562 82.957031 5.917969 L 82.957031 13.074219 L 85.820312 13.074219 L 85.820312 5.917969 C 85.8125 5.851562 85.835938 5.785156 85.882812 5.738281 C 85.925781 5.691406 85.992188 5.667969 86.058594 5.679688 L 87.5 5.679688 C 87.5625 5.667969 87.628906 5.691406 87.675781 5.738281 C 87.722656 5.785156 87.742188 5.851562 87.734375 5.917969 L 87.734375 14.6875 C 87.742188 14.753906 87.722656 14.820312 87.675781 14.867188 C 87.628906 14.914062 87.5625 14.9375 87.5 14.925781 L 76.503906 14.925781 C 76.441406 14.929688 76.378906 14.902344 76.335938 14.859375 C 76.289062 14.8125 76.265625 14.753906 76.265625 14.6875 L 76.265625 5.917969 C 76.257812 5.851562 76.28125 5.785156 76.328125 5.738281 C 76.371094 5.691406 76.4375 5.667969 76.503906 5.679688 L 77.945312 5.679688 C 78.007812 5.667969 78.074219 5.691406 78.121094 5.738281 C 78.167969 5.785156 78.1875 5.851562 78.179688 5.917969 L 78.179688 13.074219 Z M 81.042969 13.074219 "/>
<path style=" stroke:none;fill-rule:nonzero;fill:rgb(0%,0%,0%);fill-opacity:1;" d="M 97.035156 5.6875 C 97.097656 5.679688 97.164062 5.703125 97.210938 5.75 C 97.253906 5.796875 97.277344 5.863281 97.269531 5.925781 L 97.269531 7.316406 C 97.277344 7.382812 97.253906 7.449219 97.210938 7.496094 C 97.164062 7.542969 97.097656 7.5625 97.035156 7.554688 L 94.121094 7.554688 L 94.121094 14.679688 C 94.128906 14.742188 94.105469 14.808594 94.058594 14.855469 C 94.011719 14.902344 93.949219 14.925781 93.882812 14.917969 L 92.410156 14.917969 C 92.347656 14.925781 92.28125 14.902344 92.234375 14.855469 C 92.191406 14.808594 92.167969 14.742188 92.175781 14.679688 L 92.175781 7.554688 L 89.277344 7.554688 C 89.210938 7.5625 89.148438 7.542969 89.101562 7.496094 C 89.054688 7.449219 89.03125 7.382812 89.042969 7.316406 L 89.042969 5.925781 C 89.03125 5.863281 89.054688 5.796875 89.101562 5.75 C 89.148438 5.703125 89.210938 5.679688 89.277344 5.6875 L 97.046875 5.6875 Z M 97.035156 5.6875 "/>
<path style=" stroke:none;fill-rule:nonzero;fill:rgb(0%,0%,0%);fill-opacity:1;" d="M 104.195312 13.097656 L 99.640625 13.097656 L 99.003906 14.722656 C 98.964844 14.851562 98.847656 14.933594 98.714844 14.925781 L 97.058594 14.925781 C 96.894531 14.925781 96.84375 14.839844 96.894531 14.6875 L 100.832031 5.816406 C 100.863281 5.726562 100.953125 5.667969 101.046875 5.679688 L 102.957031 5.679688 C 103.050781 5.667969 103.140625 5.726562 103.171875 5.816406 L 106.941406 14.652344 C 106.964844 14.714844 106.957031 14.785156 106.921875 14.839844 C 106.882812 14.894531 106.820312 14.925781 106.753906 14.921875 L 105.160156 14.921875 C 105.003906 14.925781 104.863281 14.832031 104.808594 14.683594 Z M 100.34375 11.316406 L 103.523438 11.316406 L 102.050781 7.515625 L 101.867188 7.515625 Z M 100.34375 11.316406 "/>
<path style=" stroke:none;fill-rule:nonzero;fill:rgb(0%,0%,0%);fill-opacity:1;" d="M 26.597656 22.855469 L 26.597656 18.917969 L 29.171875 18.917969 L 29.171875 19.375 L 27.117188 19.375 L 27.117188 22.878906 L 26.613281 22.878906 Z M 26.597656 22.855469 "/>
<path style=" stroke:none;fill-rule:nonzero;fill:rgb(0%,0%,0%);fill-opacity:1;" d="M 33.671875 20.839844 C 33.671875 22 33.039062 22.945312 31.796875 22.945312 C 30.558594 22.945312 29.925781 21.980469 29.925781 20.828125 C 29.925781 19.59375 30.652344 18.792969 31.792969 18.792969 C 33.015625 18.800781 33.671875 19.660156 33.671875 20.839844 Z M 30.441406 20.863281 C 30.441406 21.855469 30.976562 22.492188 31.804688 22.492188 C 32.632812 22.492188 33.15625 21.847656 33.15625 20.863281 C 33.15625 19.882812 32.621094 19.25 31.792969 19.25 C 30.871094 19.257812 30.4375 20.023438 30.4375 20.871094 Z M 30.441406 20.863281 "/>
<path style=" stroke:none;fill-rule:nonzero;fill:rgb(0%,0%,0%);fill-opacity:1;" d="M 37.714844 22.855469 L 37.214844 22.855469 L 37.214844 19.347656 L 35.765625 19.347656 L 35.691406 21.578125 C 35.667969 22.371094 35.378906 22.933594 34.789062 22.933594 C 34.660156 22.929688 34.535156 22.902344 34.414062 22.859375 L 34.414062 22.417969 C 34.503906 22.457031 34.601562 22.476562 34.695312 22.472656 C 34.976562 22.472656 35.199219 22.316406 35.199219 21.3125 L 35.269531 18.902344 L 37.726562 18.902344 L 37.726562 22.859375 Z M 37.714844 22.855469 "/>
<path style=" stroke:none;fill-rule:nonzero;fill:rgb(0%,0%,0%);fill-opacity:1;" d="M 42.679688 20.839844 C 42.679688 22 42.046875 22.945312 40.804688 22.945312 C 39.566406 22.945312 38.933594 21.980469 38.933594 20.828125 C 38.933594 19.59375 39.664062 18.792969 40.800781 18.792969 C 42.015625 18.800781 42.679688 19.660156 42.679688 20.839844 Z M 39.449219 20.863281 C 39.449219 21.855469 39.980469 22.492188 40.8125 22.492188 C 41.640625 22.492188 42.160156 21.847656 42.160156 20.863281 C 42.160156 19.882812 41.628906 19.25 40.800781 19.25 C 39.875 19.257812 39.449219 20.023438 39.449219 20.871094 Z M 39.449219 20.863281 "/>
<path style=" stroke:none;fill-rule:nonzero;fill:rgb(0%,0%,0%);fill-opacity:1;" d="M 45.574219 18.917969 C 46.222656 18.917969 46.820312 19.175781 46.820312 19.910156 C 46.824219 20.289062 46.59375 20.628906 46.242188 20.757812 C 46.714844 20.851562 47.039062 21.289062 46.996094 21.777344 C 46.996094 22.6875 46.257812 22.894531 45.488281 22.894531 L 43.875 22.894531 L 43.875 18.917969 Z M 44.40625 20.609375 L 45.335938 20.609375 C 45.777344 20.609375 46.304688 20.574219 46.304688 19.984375 C 46.304688 19.394531 45.847656 19.363281 45.386719 19.363281 L 44.40625 19.363281 L 44.40625 20.617188 Z M 44.40625 22.433594 L 45.441406 22.433594 C 45.945312 22.433594 46.476562 22.394531 46.476562 21.703125 C 46.476562 21.011719 45.878906 21.023438 45.355469 21.023438 L 44.414062 21.023438 L 44.414062 22.4375 Z M 44.40625 22.433594 "/>
<path style=" stroke:none;fill-rule:nonzero;fill:rgb(0%,0%,0%);fill-opacity:1;" d="M 51.324219 22.855469 L 50.824219 22.855469 L 50.824219 21.003906 L 48.757812 21.003906 L 48.757812 22.855469 L 48.253906 22.855469 L 48.253906 18.917969 L 48.757812 18.917969 L 48.757812 20.570312 L 50.824219 20.570312 L 50.824219 18.917969 L 51.324219 18.917969 L 51.324219 22.875 Z M 51.324219 22.855469 "/>
<path style=" stroke:none;fill-rule:nonzero;fill:rgb(0%,0%,0%);fill-opacity:1;" d="M 56.035156 22.855469 L 55.460938 22.855469 L 55.027344 21.644531 L 53.382812 21.644531 L 52.9375 22.855469 L 52.390625 22.855469 L 53.925781 18.894531 L 54.507812 18.894531 Z M 54.207031 19.394531 L 53.53125 21.226562 L 54.871094 21.226562 Z M 54.207031 19.394531 "/>
<path style=" stroke:none;fill-rule:nonzero;fill:rgb(0%,0%,0%);fill-opacity:1;" d="M 62.40625 22.855469 L 61.902344 22.855469 L 61.902344 19.347656 L 59.839844 19.347656 L 59.839844 22.855469 L 59.335938 22.855469 L 59.335938 18.917969 L 62.4375 18.917969 L 62.4375 22.875 Z M 62.40625 22.855469 "/>
<path style=" stroke:none;fill-rule:nonzero;fill:rgb(0%,0%,0%);fill-opacity:1;" d="M 67.378906 20.839844 C 67.378906 22 66.746094 22.945312 65.507812 22.945312 C 64.265625 22.945312 63.632812 21.980469 63.632812 20.828125 C 63.632812 19.59375 64.359375 18.792969 65.5 18.792969 C 66.714844 18.800781 67.378906 19.660156 67.378906 20.839844 Z M 64.148438 20.863281 C 64.148438 21.855469 64.683594 22.492188 65.511719 22.492188 C 66.339844 22.492188 66.863281 21.847656 66.863281 20.863281 C 66.863281 19.882812 66.328125 19.25 65.5 19.25 C 64.578125 19.257812 64.160156 20.023438 64.160156 20.871094 Z M 64.148438 20.863281 "/>
<path style=" stroke:none;fill-rule:nonzero;fill:rgb(0%,0%,0%);fill-opacity:1;" d="M 68.59375 18.917969 L 69.097656 18.917969 L 69.097656 22.421875 L 70.835938 22.421875 L 70.835938 18.917969 L 71.339844 18.917969 L 71.339844 22.421875 L 73.078125 22.421875 L 73.078125 18.917969 L 73.578125 18.917969 L 73.578125 22.875 L 68.554688 22.875 L 68.554688 18.917969 Z M 68.59375 18.917969 "/>
<path style=" stroke:none;fill-rule:nonzero;fill:rgb(0%,0%,0%);fill-opacity:1;" d="M 77.859375 19.347656 L 76.546875 19.347656 L 76.546875 22.855469 L 76.046875 22.855469 L 76.046875 19.347656 L 74.710938 19.347656 L 74.710938 18.917969 L 77.855469 18.917969 L 77.855469 19.375 Z M 77.859375 19.347656 "/>
<path style=" stroke:none;fill-rule:nonzero;fill:rgb(0%,0%,0%);fill-opacity:1;" d="M 81.691406 22.855469 L 81.113281 22.855469 L 80.683594 21.644531 L 79.039062 21.644531 L 78.59375 22.855469 L 78.042969 22.855469 L 79.582031 18.917969 L 80.164062 18.917969 Z M 79.863281 19.394531 L 79.183594 21.226562 L 80.527344 21.226562 Z M 79.863281 19.394531 "/>
<path style=" stroke:none;fill-rule:nonzero;fill:rgb(0%,0%,0%);fill-opacity:1;" d="M 86.488281 20.484375 L 88.203125 22.855469 L 87.542969 22.855469 L 86.128906 20.820312 L 85.480469 21.460938 L 85.480469 22.847656 L 84.976562 22.847656 L 84.976562 18.917969 L 85.480469 18.917969 L 85.480469 20.878906 L 87.464844 18.917969 L 88.140625 18.917969 Z M 86.488281 20.484375 "/>
<path style=" stroke:none;fill-rule:nonzero;fill:rgb(0%,0%,0%);fill-opacity:1;" d="M 90.90625 18.917969 C 91.652344 18.917969 92.207031 19.230469 92.207031 20.054688 C 92.207031 20.878906 91.632812 21.25 90.871094 21.25 L 89.808594 21.25 L 89.808594 22.875 L 89.308594 22.875 L 89.308594 18.917969 L 90.917969 18.917969 Z M 89.808594 20.8125 L 90.8125 20.8125 C 91.316406 20.8125 91.699219 20.675781 91.699219 20.089844 C 91.699219 19.507812 91.25 19.367188 90.742188 19.367188 L 89.820312 19.367188 L 89.820312 20.8125 Z M 89.808594 20.8125 "/>
<path style=" stroke:none;fill-rule:nonzero;fill:rgb(0%,0%,0%);fill-opacity:1;" d="M 96.308594 22.855469 L 95.730469 22.855469 L 95.304688 21.644531 L 93.664062 21.644531 L 93.214844 22.855469 L 92.667969 22.855469 L 94.207031 18.894531 L 94.804688 18.894531 Z M 94.480469 19.394531 L 93.804688 21.226562 L 95.144531 21.226562 Z M 94.480469 19.394531 "/>
<path style=" stroke:none;fill-rule:nonzero;fill:rgb(0%,0%,0%);fill-opacity:1;" d="M 97.386719 18.554688 L 96.882812 18.554688 L 96.882812 17.996094 L 97.386719 17.996094 Z M 97.914062 22.855469 L 97.410156 22.855469 L 97.410156 18.917969 L 97.914062 18.917969 L 97.914062 22.875 Z M 98.414062 18.554688 L 97.914062 18.554688 L 97.914062 17.996094 L 98.414062 17.996094 Z M 98.414062 18.554688 "/>
<path style=" stroke:none;fill-rule:nonzero;fill:rgb(0%,0%,0%);fill-opacity:1;" d="M 102.445312 22.855469 L 101.941406 22.855469 L 101.941406 21.003906 L 99.875 21.003906 L 99.875 22.855469 L 99.375 22.855469 L 99.375 18.917969 L 99.875 18.917969 L 99.875 20.570312 L 101.941406 20.570312 L 101.941406 18.917969 L 102.445312 18.917969 L 102.445312 22.875 Z M 102.445312 22.855469 "/>
<path style=" stroke:none;fill-rule:nonzero;fill:rgb(0%,0%,0%);fill-opacity:1;" d="M 103.84375 18.917969 L 104.347656 18.917969 L 104.347656 22.269531 L 106.265625 18.917969 L 106.917969 18.917969 L 106.917969 22.875 L 106.417969 22.875 L 106.417969 19.511719 L 104.492188 22.875 L 103.84375 22.875 Z M 103.84375 18.917969 "/>
</g>
</svg>
