<?xml version="1.0" standalone="no"?>
<!DOCTYPE svg PUBLIC "-//W3C//DTD SVG 20010904//EN"
 "http://www.w3.org/TR/2001/REC-SVG-20010904/DTD/svg10.dtd">
<svg version="1.0" xmlns="http://www.w3.org/2000/svg"
 width="112.000000pt" height="40.000000pt" viewBox="0 0 112.000000 40.000000"
 preserveAspectRatio="xMidYMid meet">

<g transform="translate(0.000000,40.000000) scale(0.100000,-0.100000)"
fill="#000000" stroke="none">
<path d="M309 383 c-1 -4 -1 -12 0 -16 2 -13 -19 -47 -101 -163 -43 -61 -78
-114 -78 -118 0 -23 29 10 103 117 83 121 106 170 87 182 -5 3 -11 3 -11 -2z"/>
<path d="M88 333 c23 -2 59 -2 80 0 20 2 1 4 -43 4 -44 0 -61 -2 -37 -4z"/>
<path d="M873 310 c-6 -14 -32 -82 -58 -153 -45 -117 -51 -128 -79 -136 l-31
-9 36 -1 c42 -1 39 -5 106 177 24 68 42 128 40 135 -3 7 -9 1 -14 -13z"/>
<path d="M563 306 c16 -22 7 -82 -16 -104 -27 -26 -88 -52 -121 -52 -19 0 -23
-4 -19 -20 3 -10 12 -25 21 -32 13 -11 14 -10 4 9 -16 29 -15 33 6 33 105 0
189 98 135 157 -10 10 -15 14 -10 9z"/>
<path d="M680 314 c0 -5 9 -41 20 -79 11 -38 20 -81 20 -94 0 -18 3 -22 11
-14 8 8 4 34 -12 94 -19 74 -39 121 -39 93z"/>
<path d="M1088 290 c-3 -16 -1 -30 4 -30 4 0 8 14 8 30 0 17 -2 30 -4 30 -2 0
-6 -13 -8 -30z"/>
<path d="M436 269 c-14 -11 -26 -29 -26 -40 0 -29 14 -23 27 11 6 17 18 30 27
30 9 0 16 5 16 10 0 16 -15 12 -44 -11z"/>
<path d="M988 283 c-20 -5 -24 -28 -8 -38 6 -4 9 -2 8 4 -2 5 6 17 17 25 20
15 15 18 -17 9z"/>
<path d="M1070 183 c0 -6 5 -15 10 -18 15 -9 12 -62 -5 -95 -18 -35 -71 -54
-129 -47 -28 4 -35 3 -21 -3 29 -13 100 -12 130 2 53 24 71 102 35 148 -11 14
-20 20 -20 13z"/>
<path d="M560 66 c0 -33 -25 -46 -92 -47 -38 0 -47 -3 -33 -9 22 -9 101 -2
128 12 18 9 23 53 7 63 -6 3 -10 -5 -10 -19z"/>
<path d="M298 48 c-3 -22 -8 -23 -138 -29 l-135 -5 145 0 145 1 3 28 c4 32
-15 37 -20 5z"/>
</g>
</svg>
